<?xml version="1.0" encoding="UTF-8" standalone="no"?>
<!DOCTYPE svg PUBLIC "-//W3C//DTD SVG 1.1//EN" "http://www.w3.org/Graphics/SVG/1.1/DTD/svg11.dtd">
<svg xmlns="http://www.w3.org/2000/svg" xmlns:xlink="http://www.w3.org/1999/xlink" version="1.1" width="1417.32pt" height="287.961pt" viewBox="0 0 1417.32 287.961">
<g enable-background="new">
<g id="Layer-1" data-name="Layer 1">
<path transform="matrix(1,0,0,-1,0,287.961)" d="M 503.381 80.614 L 501.035 80.614 L 501.035 234.57199 L 503.381 234.57199 Z " fill="#231f20"/>
<clipPath id="cp0">
<path transform="matrix(1,0,0,-1,0,287.961)" d="M 0 287.961 L 1417.323 287.961 L 1417.323 0 L 0 0 Z "/>
</clipPath>
<g clip-path="url(#cp0)">
<path transform="matrix(1,0,0,-1,1194.6904,108.554309)" d="M 0 0 C 0 4.563 2.786 7.188 6.463 7.188 C 8.479 7.188 9.492 6.745 10.539 6.058 L 10.539 4.341 L 9.694 4.341 C 9.028 4.988 8.1 5.513 6.523 5.513 C 3.958 5.513 2.242 3.635 2.242 .082 C 2.242 -3.654 3.757 -5.532 6.36 -5.532 C 8.156 -5.532 9.188 -4.824 9.995 -3.996 L 10.703 -3.996 L 10.703 -5.673 C 9.732 -6.521 8.32 -7.187 6.28 -7.187 C 2.523 -7.187 0 -4.583 0 0 " fill="#231f20"/>
<path transform="matrix(1,0,0,-1,1208.168,101.486408)" d="M 0 0 L 8.658 0 L 8.658 -1.697 L 2.181 -1.697 L 2.181 -6.097 L 6.923 -6.097 L 6.923 -7.713 L 2.181 -7.713 L 2.181 -12.478 L 8.883 -12.478 L 8.883 -14.134 L 0 -14.134 Z " fill="#231f20"/>
<path transform="matrix(1,0,0,-1,1219.8027,101.486408)" d="M 0 0 L 2.523 0 L 8.682 -10.398 L 8.724 -10.398 L 8.724 0 L 10.619 0 L 10.619 -14.134 L 8.602 -14.134 L 1.918 -2.807 L 1.881 -2.807 L 1.881 -14.134 L 0 -14.134 Z " fill="#231f20"/>
<path transform="matrix(1,0,0,-1,1237.0137,115.62019)" d="M 0 0 L 0 12.478 L -4.057 12.478 L -4.057 14.134 L 6.262 14.134 L 6.262 12.478 L 2.204 12.478 L 2.204 0 Z " fill="#231f20"/>
<path transform="matrix(1,0,0,-1,1248.0479,108.10899)" d="M 0 0 L 1.937 0 C 3.855 0 4.826 .685 4.826 2.483 C 4.826 4.24 3.795 4.946 1.937 4.946 L 0 4.946 Z M 2.664 -1.595 C 2.463 -1.616 2.241 -1.616 1.998 -1.616 L 0 -1.616 L 0 -7.511 L -2.181 -7.511 L -2.181 6.623 L 1.998 6.623 C 5.127 6.623 7.045 5.371 7.045 2.604 C 7.045 .666 6.196 -.565 4.724 -1.172 L 7.771 -6.845 L 7.771 -7.511 L 5.773 -7.511 Z " fill="#231f20"/>
<path transform="matrix(1,0,0,-1,1268.125,108.5943)" d="M 0 0 C 0 3.755 -1.777 5.593 -4.138 5.593 C -6.521 5.593 -8.278 3.755 -8.278 0 C -8.278 -3.754 -6.521 -5.511 -4.138 -5.511 C -1.777 -5.511 0 -3.754 0 0 M -10.539 .04 C -10.539 4.684 -7.594 7.228 -4.138 7.228 C -.708 7.228 2.241 4.684 2.241 .04 C 2.241 -4.623 -.708 -7.147 -4.138 -7.147 C -7.594 -7.147 -10.539 -4.623 -10.539 .04 " fill="#231f20"/>
<path transform="matrix(1,0,0,-1,1281.9063,113.96449)" d="M 0 0 C 3.334 0 4.868 1.515 4.868 5.431 C 4.868 9.308 3.334 10.802 0 10.802 L -1.796 10.802 L -1.796 0 Z M -3.977 12.478 L .062 12.478 C 4.644 12.478 7.129 10.377 7.129 5.45 C 7.129 .565 4.625 -1.656 0 -1.656 L -3.977 -1.656 Z " fill="#231f20"/>
<path transform="matrix(1,0,0,-1,1291.8291,101.486408)" d="M 0 0 L 8.662 0 L 8.662 -1.697 L 2.181 -1.697 L 2.181 -6.097 L 6.927 -6.097 L 6.927 -7.713 L 2.181 -7.713 L 2.181 -12.478 L 8.883 -12.478 L 8.883 -14.134 L 0 -14.134 Z " fill="#231f20"/>
<path transform="matrix(1,0,0,-1,0,287.961)" d="M 1195.417 161.781 L 1197.641 161.781 L 1197.641 147.647 L 1195.417 147.647 Z " fill="#231f20"/>
<path transform="matrix(1,0,0,-1,1201.1953,126.1803)" d="M 0 0 L 2.523 0 L 8.682 -10.398 L 8.724 -10.398 L 8.724 0 L 10.619 0 L 10.619 -14.134 L 8.602 -14.134 L 1.918 -2.807 L 1.88 -2.807 L 1.88 -14.134 L 0 -14.134 Z " fill="#231f20"/>
<path transform="matrix(1,0,0,-1,1214.3682,126.8483)" d="M 0 0 L 0 .668 L 2.059 .668 L 5.857 -10.76 L 5.896 -10.76 L 9.713 .668 L 11.57 .668 L 11.57 0 L 6.907 -13.466 L 4.624 -13.466 Z " fill="#231f20"/>
<path transform="matrix(1,0,0,-1,1228.5108,126.1803)" d="M 0 0 L 8.663 0 L 8.663 -1.697 L 2.182 -1.697 L 2.182 -6.097 L 6.928 -6.097 L 6.928 -7.713 L 2.182 -7.713 L 2.182 -12.478 L 8.884 -12.478 L 8.884 -14.134 L 0 -14.134 Z " fill="#231f20"/>
<path transform="matrix(1,0,0,-1,1239.3809,139.2442)" d="M 0 0 L 0 1.777 L .77 1.777 C 1.412 1.09 2.485 .485 4.24 .485 C 6.079 .485 7.148 1.231 7.148 2.767 C 7.148 4.523 5.714 4.765 3.936 5.269 C 1.454 5.996 .202 7.007 .202 9.289 C .202 11.751 1.961 13.184 4.705 13.184 C 6.402 13.184 7.612 12.781 8.461 12.236 L 8.461 10.52 L 7.712 10.52 C 6.988 11.104 6.117 11.509 4.785 11.509 C 2.988 11.509 2.12 10.761 2.12 9.448 C 2.12 7.976 3.19 7.591 4.906 7.147 C 7.795 6.36 9.165 5.532 9.165 2.987 C 9.165 .243 7.369 -1.191 4.302 -1.191 C 2.303 -1.191 1.051 -.706 0 0 " fill="#231f20"/>
<path transform="matrix(1,0,0,-1,1253.9473,140.3141)" d="M 0 0 L 0 12.479 L -4.058 12.479 L -4.058 14.134 L 6.257 14.134 L 6.257 12.479 L 2.2 12.479 L 2.2 0 Z " fill="#231f20"/>
<path transform="matrix(1,0,0,-1,0,287.961)" d="M 1262.815 161.781 L 1265.038 161.781 L 1265.038 147.647 L 1262.815 147.647 Z " fill="#231f20"/>
<path transform="matrix(1,0,0,-1,1267.8467,133.2482)" d="M 0 0 C 0 4.686 2.688 7.188 6.665 7.188 C 8.48 7.188 9.53 6.824 10.642 6.24 L 10.642 4.423 L 9.854 4.423 C 9.146 5.049 8.278 5.492 6.707 5.492 C 4.062 5.492 2.322 3.897 2.322 .082 C 2.322 -3.733 3.757 -5.593 6.421 -5.593 C 7.673 -5.593 8.4 -5.37 8.986 -5.086 L 8.986 -1.433 L 6.623 -1.433 L 6.623 .101 L 11.167 .101 L 11.167 -6.097 C 9.976 -6.742 8.419 -7.187 6.421 -7.187 C 2.443 -7.187 0 -4.704 0 0 " fill="#231f20"/>
<path transform="matrix(1,0,0,-1,1284.8145,134.7418)" d="M 0 0 L 4.122 0 L 2.082 6.238 L 2.04 6.238 Z M -3.593 -4.906 L 1.073 8.562 L 3.414 8.562 L 8.058 -4.906 L 8.058 -5.572 L 5.979 -5.572 L 4.666 -1.616 L -.521 -1.616 L -1.797 -5.572 L -3.593 -5.572 Z " fill="#231f20"/>
<path transform="matrix(1,0,0,-1,1294.1738,133.2482)" d="M 0 0 C 0 4.563 2.786 7.188 6.459 7.188 C 8.479 7.188 9.488 6.745 10.539 6.058 L 10.539 4.341 L 9.689 4.341 C 9.023 4.988 8.095 5.513 6.52 5.513 C 3.958 5.513 2.241 3.635 2.241 .082 C 2.241 -3.654 3.756 -5.532 6.359 -5.532 C 8.156 -5.532 9.184 -4.824 9.994 -3.996 L 10.698 -3.996 L 10.698 -5.673 C 9.731 -6.521 8.316 -7.187 6.279 -7.187 C 2.523 -7.187 0 -4.583 0 0 " fill="#231f20"/>
<path transform="matrix(1,0,0,-1,0,287.961)" d="M 1307.688 161.781 L 1309.908 161.781 L 1309.908 147.647 L 1307.688 147.647 Z " fill="#231f20"/>
<path transform="matrix(1,0,0,-1,1318.4336,125.2325)" d="M 0 0 L .867 1.918 L 2.949 1.918 L 2.949 1.273 L 1.191 -.504 L 0 -.504 Z M 4.826 -8.056 C 4.826 -4.301 3.049 -2.462 .688 -2.462 C -1.694 -2.462 -3.452 -4.301 -3.452 -8.056 C -3.452 -11.81 -1.694 -13.587 .688 -13.587 C 3.049 -13.587 4.826 -11.81 4.826 -8.056 M -5.713 -8.016 C -5.713 -3.372 -2.768 -.828 .688 -.828 C 4.118 -.828 7.067 -3.372 7.067 -8.016 C 7.067 -12.678 4.118 -15.203 .688 -15.203 C -2.768 -15.203 -5.713 -12.678 -5.713 -8.016 " fill="#231f20"/>
<path transform="matrix(1,0,0,-1,1328.2949,126.1803)" d="M 0 0 L 2.523 0 L 8.682 -10.398 L 8.724 -10.398 L 8.724 0 L 10.619 0 L 10.619 -14.134 L 8.602 -14.134 L 1.918 -2.807 L 1.88 -2.807 L 1.88 -14.134 L 0 -14.134 Z " fill="#231f20"/>
<path transform="matrix(1,0,0,-1,1195.3789,150.8736)" d="M 0 0 L 8.659 0 L 8.659 -1.698 L 2.182 -1.698 L 2.182 -6.098 L 6.924 -6.098 L 6.924 -7.713 L 2.182 -7.713 L 2.182 -12.479 L 8.884 -12.479 L 8.884 -14.134 L 0 -14.134 Z " fill="#231f20"/>
<path transform="matrix(1,0,0,-1,1207.0147,150.8736)" d="M 0 0 L 2.523 0 L 8.682 -10.398 L 8.724 -10.398 L 8.724 0 L 10.619 0 L 10.619 -14.134 L 8.602 -14.134 L 1.918 -2.808 L 1.88 -2.808 L 1.88 -14.134 L 0 -14.134 Z " fill="#231f20"/>
<path transform="matrix(1,0,0,-1,1225.2188,157.942)" d="M 0 0 C 0 4.563 2.786 7.187 6.459 7.187 C 8.48 7.187 9.488 6.744 10.539 6.058 L 10.539 4.341 L 9.69 4.341 C 9.024 4.988 8.096 5.514 6.52 5.514 C 3.959 5.514 2.242 3.635 2.242 .082 C 2.242 -3.653 3.757 -5.532 6.36 -5.532 C 8.156 -5.532 9.185 -4.824 9.995 -3.996 L 10.699 -3.996 L 10.699 -5.673 C 9.732 -6.521 8.316 -7.187 6.28 -7.187 C 2.523 -7.187 0 -4.582 0 0 " fill="#231f20"/>
<path transform="matrix(1,0,0,-1,1248.3867,157.982)" d="M 0 0 C 0 3.755 -1.777 5.594 -4.138 5.594 C -6.521 5.594 -8.278 3.755 -8.278 0 C -8.278 -3.755 -6.521 -5.511 -4.138 -5.511 C -1.777 -5.511 0 -3.755 0 0 M -10.539 .04 C -10.539 4.684 -7.594 7.228 -4.138 7.228 C -.708 7.228 2.241 4.684 2.241 .04 C 2.241 -4.622 -.708 -7.147 -4.138 -7.147 C -7.594 -7.147 -10.539 -4.622 -10.539 .04 " fill="#231f20"/>
<path transform="matrix(1,0,0,-1,1253.4219,150.8736)" d="M 0 0 L 3.049 0 L 6.786 -10.722 L 6.824 -10.722 L 10.562 0 L 13.55 0 L 13.55 -14.134 L 11.369 -14.134 L 11.369 -2.605 L 11.308 -2.605 L 7.27 -14.134 L 5.896 -14.134 L 1.899 -2.605 L 1.819 -2.605 L 1.819 -14.134 L 0 -14.134 Z " fill="#231f20"/>
<path transform="matrix(1,0,0,-1,1272.6768,157.9606)" d="M 0 0 L 1.896 0 C 3.996 0 4.925 .847 4.925 2.746 C 4.925 4.644 3.996 5.41 1.896 5.41 L 0 5.41 Z M -2.181 7.087 L 1.937 7.087 C 5.187 7.087 7.145 5.834 7.145 2.786 C 7.145 -.263 5.207 -1.595 1.896 -1.595 L 0 -1.595 L 0 -7.047 L -2.181 -7.047 Z " fill="#231f20"/>
<path transform="matrix(1,0,0,-1,1291.0947,159.86)" d="M 0 0 L 0 8.986 L 1.96 8.986 L 1.96 .061 C 1.96 -3.532 .243 -5.27 -3.251 -5.27 C -6.581 -5.27 -8.701 -3.532 -8.701 .061 L -8.701 8.986 L -6.501 8.986 L -6.501 0 C -6.501 -2.805 -5.108 -3.532 -3.129 -3.532 C -1.229 -3.532 0 -2.766 0 0 " fill="#231f20"/>
<path transform="matrix(1,0,0,-1,1299.5859,165.0074)" d="M 0 0 L 0 12.478 L -4.058 12.478 L -4.058 14.134 L 6.257 14.134 L 6.257 12.478 L 2.2 12.478 L 2.2 0 Z " fill="#231f20"/>
<path transform="matrix(1,0,0,-1,1309.668,159.4361)" d="M 0 0 L 4.118 0 L 2.078 6.238 L 2.04 6.238 Z M -3.593 -4.905 L 1.069 8.563 L 3.41 8.563 L 8.054 -4.905 L 8.054 -5.571 L 5.976 -5.571 L 4.662 -1.615 L -.525 -1.615 L -1.797 -5.571 L -3.593 -5.571 Z " fill="#231f20"/>
<path transform="matrix(1,0,0,-1,1319.0234,157.942)" d="M 0 0 C 0 4.563 2.786 7.187 6.463 7.187 C 8.479 7.187 9.492 6.744 10.539 6.058 L 10.539 4.341 L 9.694 4.341 C 9.028 4.988 8.1 5.514 6.523 5.514 C 3.958 5.514 2.241 3.635 2.241 .082 C 2.241 -3.653 3.757 -5.532 6.359 -5.532 C 8.156 -5.532 9.188 -4.824 9.995 -3.996 L 10.702 -3.996 L 10.702 -5.673 C 9.732 -6.521 8.32 -7.187 6.28 -7.187 C 2.523 -7.187 0 -4.582 0 0 " fill="#231f20"/>
<path transform="matrix(1,0,0,-1,0,287.961)" d="M 1332.539 137.087 L 1334.762 137.087 L 1334.762 122.953 L 1332.539 122.953 Z " fill="#231f20"/>
<path transform="matrix(1,0,0,-1,1343.2832,149.92639)" d="M 0 0 L .868 1.918 L 2.95 1.918 L 2.95 1.273 L 1.191 -.504 L 0 -.504 Z M 4.826 -8.056 C 4.826 -4.301 3.049 -2.462 .688 -2.462 C -1.693 -2.462 -3.452 -4.301 -3.452 -8.056 C -3.452 -11.811 -1.693 -13.588 .688 -13.588 C 3.049 -13.588 4.826 -11.811 4.826 -8.056 M -5.713 -8.016 C -5.713 -3.372 -2.767 -.828 .688 -.828 C 4.118 -.828 7.068 -3.372 7.068 -8.016 C 7.068 -12.678 4.118 -15.203 .688 -15.203 C -2.767 -15.203 -5.713 -12.678 -5.713 -8.016 " fill="#231f20"/>
<path transform="matrix(1,0,0,-1,1353.1484,150.8736)" d="M 0 0 L 2.523 0 L 8.682 -10.398 L 8.72 -10.398 L 8.72 0 L 10.619 0 L 10.619 -14.134 L 8.602 -14.134 L 1.918 -2.808 L 1.877 -2.808 L 1.877 -14.134 L 0 -14.134 Z " fill="#231f20"/>
<path transform="matrix(1,0,0,-1,1194.4092,188.6305)" d="M 0 0 L 0 1.777 L .769 1.777 C 1.412 1.091 2.485 .485 4.239 .485 C 6.078 .485 7.147 1.231 7.147 2.768 C 7.147 4.523 5.713 4.766 3.936 5.27 C 1.453 5.997 .201 7.008 .201 9.289 C .201 11.752 1.96 13.185 4.704 13.185 C 6.401 13.185 7.611 12.781 8.461 12.237 L 8.461 10.521 L 7.711 10.521 C 6.987 11.104 6.116 11.51 4.784 11.51 C 2.987 11.51 2.119 10.762 2.119 9.449 C 2.119 7.976 3.189 7.592 4.905 7.148 C 7.795 6.36 9.165 5.532 9.165 2.988 C 9.165 .244 7.368 -1.191 4.301 -1.191 C 2.303 -1.191 1.05 -.706 0 0 " fill="#231f20"/>
<path transform="matrix(1,0,0,-1,1216.1797,182.6734)" d="M 0 0 C 0 3.755 -1.773 5.593 -4.138 5.593 C -6.52 5.593 -8.274 3.755 -8.274 0 C -8.274 -3.755 -6.52 -5.512 -4.138 -5.512 C -1.773 -5.512 0 -3.755 0 0 M -10.539 .04 C -10.539 4.684 -7.59 7.228 -4.138 7.228 C -.704 7.228 2.241 4.684 2.241 .04 C 2.241 -4.623 -.704 -7.148 -4.138 -7.148 C -7.59 -7.148 -10.539 -4.623 -10.539 .04 " fill="#231f20"/>
<path transform="matrix(1,0,0,-1,1220.248,188.6305)" d="M 0 0 L 0 1.777 L .769 1.777 C 1.412 1.091 2.485 .485 4.24 .485 C 6.078 .485 7.148 1.231 7.148 2.768 C 7.148 4.523 5.713 4.766 3.936 5.27 C 1.454 5.997 .202 7.008 .202 9.289 C .202 11.752 1.96 13.185 4.704 13.185 C 6.402 13.185 7.612 12.781 8.461 12.237 L 8.461 10.521 L 7.711 10.521 C 6.988 11.104 6.116 11.51 4.784 11.51 C 2.988 11.51 2.12 10.762 2.12 9.449 C 2.12 7.976 3.189 7.592 4.906 7.148 C 7.795 6.36 9.165 5.532 9.165 2.988 C 9.165 .244 7.369 -1.191 4.301 -1.191 C 2.303 -1.191 1.051 -.706 0 0 " fill="#231f20"/>
<path transform="matrix(1,0,0,-1,1234.8145,189.6998)" d="M 0 0 L 0 12.479 L -4.058 12.479 L -4.058 14.134 L 6.257 14.134 L 6.257 12.479 L 2.199 12.479 L 2.199 0 Z " fill="#231f20"/>
<path transform="matrix(1,0,0,-1,1243.6445,175.56601)" d="M 0 0 L 8.658 0 L 8.658 -1.697 L 2.181 -1.697 L 2.181 -6.097 L 6.923 -6.097 L 6.923 -7.713 L 2.181 -7.713 L 2.181 -12.478 L 8.883 -12.478 L 8.883 -14.134 L 0 -14.134 Z " fill="#231f20"/>
<path transform="matrix(1,0,0,-1,1255.2832,175.56601)" d="M 0 0 L 2.523 0 L 8.682 -10.397 L 8.72 -10.397 L 8.72 0 L 10.619 0 L 10.619 -14.134 L 8.602 -14.134 L 1.918 -2.807 L 1.876 -2.807 L 1.876 -14.134 L 0 -14.134 Z " fill="#231f20"/>
<path transform="matrix(1,0,0,-1,0,287.961)" d="M 1269.441 112.395 L 1271.6641 112.395 L 1271.6641 98.260997 L 1269.441 98.260997 Z " fill="#231f20"/>
<path transform="matrix(1,0,0,-1,1279.7256,188.04361)" d="M 0 0 C 1.735 0 2.805 .827 2.805 2.462 C 2.805 4.118 1.735 4.927 -.084 4.927 L -2.345 4.927 L -2.345 0 Z M -.243 6.521 C 1.31 6.521 2.28 7.147 2.28 8.702 C 2.28 10.236 1.31 10.822 -.225 10.822 L -2.345 10.822 L -2.345 6.521 Z M -4.503 12.478 L -.164 12.478 C 2.726 12.478 4.461 11.467 4.461 8.843 C 4.461 7.065 3.452 6.198 2.036 5.834 L 2.036 5.773 C 3.753 5.41 5.047 4.502 5.047 2.361 C 5.047 -.303 3.147 -1.656 .061 -1.656 L -4.503 -1.656 Z " fill="#231f20"/>
<path transform="matrix(1,0,0,-1,1287.5049,189.6998)" d="M 0 0 L 0 14.134 L 2.182 14.134 L 2.182 1.656 L 8.48 1.656 L 8.48 0 Z " fill="#231f20"/>
<path transform="matrix(1,0,0,-1,1298.7178,175.56601)" d="M 0 0 L 8.663 0 L 8.663 -1.697 L 2.181 -1.697 L 2.181 -6.097 L 6.927 -6.097 L 6.927 -7.713 L 2.181 -7.713 L 2.181 -12.478 L 8.884 -12.478 L 8.884 -14.134 L 0 -14.134 Z " fill="#231f20"/>
<path transform="matrix(1,0,0,-1,569.6118,144.8922)" d="M 0 0 C 0 27.934 17.833 44.894 43.149 44.894 C 55.122 44.894 61.854 42.65 68.589 39.158 L 68.589 24.568 L 61.605 24.568 C 57.864 28.058 52.254 30.802 43.648 30.802 C 28.434 30.802 19.954 20.202 19.954 .748 C 19.954 -20.452 27.56 -30.43 42.525 -30.43 C 52.876 -30.43 58.614 -26.563 63.476 -21.701 L 69.586 -21.701 L 69.586 -36.042 C 62.978 -41.03 53.873 -44.396 41.652 -44.396 C 16.461 -44.396 0 -27.936 0 0 " fill="#231f20"/>
<path transform="matrix(1,0,0,-1,751.8203,129.6778)" d="M 0 0 C 5.861 4.364 14.341 7.855 23.07 7.855 C 29.805 7.855 35.916 5.861 38.66 -.499 C 45.27 4.613 54.248 7.855 62.854 7.855 C 72.081 7.855 79.938 3.616 79.938 -10.476 L 79.938 -58.614 L 61.73 -58.614 L 61.73 -15.091 C 61.73 -8.855 59.61 -6.735 54.124 -6.735 C 48.885 -6.735 44.022 -8.356 40.155 -9.852 L 40.155 -58.614 L 21.949 -58.614 L 21.949 -15.091 C 21.949 -8.855 19.829 -6.735 14.341 -6.735 C 9.104 -6.735 4.365 -8.356 .375 -9.729 L .375 -58.614 L -17.834 -58.614 L -17.834 6.858 L -5.486 6.858 C -2.369 6.858 -.623 5.486 0 0 " fill="#231f20"/>
<path transform="matrix(1,0,0,-1,863.3174,139.0314)" d="M 0 0 L 0 -32.3 C 3.116 -34.793 6.983 -35.916 11.723 -35.916 C 19.703 -35.916 26.562 -32.424 26.562 -16.461 C 26.562 -.624 20.076 3.243 12.345 3.243 C 8.729 3.243 3.741 1.745 0 0 M 0 -43.774 L 0 -69.462 L -18.209 -69.462 L -18.209 16.212 L -5.862 16.212 C -2.868 16.212 -1.123 14.965 -.375 9.852 C 4.489 13.966 10.723 17.209 19.827 17.209 C 32.424 17.209 45.02 8.48 45.02 -14.839 C 45.02 -39.534 30.928 -48.512 16.335 -48.512 C 9.228 -48.512 4.114 -46.765 0 -43.774 " fill="#231f20"/>
<path transform="matrix(1,0,0,-1,914.8242,182.3062)" d="M 0 0 L 0 14.842 L 6.36 14.842 C 10.228 10.726 16.836 6.86 27.062 6.86 C 37.663 6.86 42.774 10.851 42.774 17.584 C 42.774 26.937 34.046 27.811 24.069 30.805 C 7.981 35.543 .624 42.152 .624 56.868 C .624 73.828 13.345 82.308 31.178 82.308 C 41.404 82.308 50.008 79.939 55.496 76.572 L 55.496 62.48 L 49.386 62.48 C 44.771 65.847 39.408 68.342 31.926 68.342 C 22.448 68.342 17.335 65.348 17.335 58.24 C 17.335 51.256 23.072 49.136 33.298 46.518 C 52.378 41.653 60.358 35.667 60.358 19.58 C 60.358 2.62 49.137 -6.982 27.686 -6.982 C 15.215 -6.982 7.359 -4.24 0 0 " fill="#231f20"/>
<path transform="matrix(1,0,0,-1,1026.8164,172.3287)" d="M 0 0 L 0 49.509 L 18.208 49.509 L 18.208 -15.963 L 5.861 -15.963 C 2.867 -15.963 1.122 -14.966 .375 -9.852 C -5.736 -14.092 -14.092 -16.836 -22.073 -16.836 C -33.049 -16.836 -41.153 -12.597 -41.153 .873 L -41.153 49.509 L -22.947 49.509 L -22.947 5.486 C -22.947 -1.621 -19.455 -3.243 -13.718 -3.243 C -9.104 -3.243 -3.991 -1.621 0 0 " fill="#231f20"/>
<path transform="matrix(1,0,0,-1,1058.8711,183.67639)" d="M 0 0 L 0 13.468 L 5.735 13.468 C 8.729 10.724 14.218 7.981 21.824 7.981 C 29.181 7.981 33.048 9.976 33.048 14.092 C 33.048 18.082 30.679 19.953 21.449 21.074 C 7.107 22.821 -.499 28.184 -.499 41.027 C -.499 54.248 9.354 61.605 25.439 61.605 C 34.919 61.605 40.78 59.734 46.017 57.116 L 46.017 43.897 L 40.53 43.897 C 37.537 46.141 32.3 48.261 25.565 48.261 C 18.457 48.261 15.713 46.141 15.713 42.399 C 15.713 39.033 18.956 37.288 27.935 36.165 C 43.522 34.169 50.008 29.056 50.008 15.837 C 50.008 2.991 41.651 -5.363 22.697 -5.363 C 11.972 -5.363 5.113 -2.87 0 0 " fill="#231f20"/>
<path transform="matrix(1,0,0,-1,1116.2402,122.8194)" d="M 0 0 L 7.731 0 L 7.731 17.458 L 25.937 17.458 L 25.937 0 L 39.158 0 L 39.158 -12.221 L 25.937 -12.221 L 25.937 -45.768 C 25.937 -52.004 28.433 -53.749 34.42 -53.749 L 39.407 -53.749 L 39.407 -64.724 C 36.663 -65.597 33.048 -66.469 27.935 -66.469 C 15.338 -66.469 7.731 -61.481 7.731 -47.888 L 7.731 -12.221 L 0 -12.221 Z " fill="#231f20"/>
<path transform="matrix(1,0,0,-1,719.6699,168.04059)" d="M 0 0 L -1.95 -3.765 L -5.977 -11.54 L -5.752 -8.016 L -5.69 -7.048 L -5.458 -3.388 L -3.13 -.897 L -2.701 -.439 L -.254 2.178 L .48 2.964 L 2.843 5.489 Z M -6.652 -12.713 L -11.035 -13.921 L -12.103 -14.216 L -12.48 -14.319 L -13.224 -14.524 L -15.966 -15.28 L -16.905 -15.539 L -20.806 -16.615 L -18.691 -14.795 L -18.183 -14.357 L -18.058 -14.25 L -10.147 -7.441 L -9.103 -6.542 L -6.095 -3.953 L -6.338 -7.771 L -6.399 -8.739 Z M -12.54 -15.604 L -24.764 -21.529 L -25.418 -21.847 L -25.369 -21.786 L -24.537 -20.78 L -23.966 -20.091 L -23.475 -19.496 L -22.809 -18.691 L -21.843 -17.523 L -16.006 -15.914 L -15.067 -15.655 L -13.53 -15.231 L -11.773 -14.747 L -9.45 -14.106 Z M -26.654 -22.399 L -27.903 -22.236 L -39.459 -20.732 L -38.191 -20.502 L -36.966 -20.279 L -35.988 -20.102 L -32.218 -19.417 L -31.46 -19.279 L -22.769 -17.701 L -23.815 -18.967 L -23.977 -19.162 L -24.481 -19.771 L -25.737 -21.291 L -26.536 -22.257 Z M -50.403 -16.437 L -54.449 -13.452 L -51.766 -15.031 L -49.82 -16.177 L -49.161 -16.564 L -48.197 -17.132 L -44.827 -19.115 L -43.8 -19.721 L -47.529 -18.558 Z M -56.421 -10.229 L -55.671 -10.142 L -54.813 -10.042 L -53.977 -9.944 L -53.016 -9.832 L -52.354 -9.756 L -49.953 -9.476 L -49.309 -9.4 L -44.026 -8.785 L -43.897 -9.454 L -43.394 -12.063 L -43.28 -12.655 L -42.478 -16.815 L -42.333 -17.561 L -41.917 -19.724 L -41.828 -20.186 L -42.744 -19.646 L -42.994 -19.499 L -48.706 -16.136 L -49.67 -15.568 L -51.393 -14.555 L -53.339 -13.409 L -58.357 -10.455 Z M -59.162 -7.402 L -59.272 -5.682 L -59.678 .653 L -59.758 1.898 L -59.948 4.868 L -59.987 5.468 L -60.161 8.177 L -57.638 5.549 L -57.08 4.968 L -48.43 -4.047 L -48.363 -4.116 L -47.948 -4.55 L -44.419 -8.227 L -49.134 -8.776 L -49.778 -8.852 L -52.711 -9.193 L -53.373 -9.271 L -54.633 -9.417 L -55.468 -9.514 L -56.197 -9.599 L -56.947 -9.687 L -59 -9.926 Z M -61.634 -4.852 L -63.439 -1.222 L -67.795 7.535 L -65.118 7.953 L -64.525 8.046 L -63.544 8.199 L -62.941 8.294 L -61.619 8.5 L -60.977 8.601 L -60.791 8.63 L -60.587 5.446 L -60.548 4.848 L -60.427 2.95 L -60.347 1.706 L -59.906 -5.172 L -59.806 -6.738 L -59.674 -8.793 Z M -66.635 16.243 L -66.029 20.165 L -65.109 26.126 L -64.477 23.6 L -64.243 22.662 L -63.752 20.7 L -63.593 20.062 L -61.166 10.355 L -60.883 9.223 L -61.465 9.132 L -63.143 8.869 L -63.745 8.775 L -64.633 8.637 L -65.226 8.544 L -67.887 8.128 Z M -62.498 27.98 L -61.759 28.158 L -57.417 29.207 L -56.816 29.352 L -53.999 30.032 L -53.062 30.258 L -51.159 30.717 L -50.4 30.9 L -51.784 27.995 L -52.511 26.47 L -52.822 25.817 L -54.688 21.9 L -54.999 21.248 L -60.424 9.86 L -60.548 10.357 L -60.86 11.606 L -62.619 18.641 L -63.076 20.468 L -63.235 21.105 L -63.845 23.543 L -64.079 24.481 L -64.814 27.421 Z M -60.306 32.831 L -58.924 34.433 L -57.33 36.281 L -56.721 36.986 L -54.37 39.712 L -53.714 40.472 L -53.051 41.24 L -51.97 42.494 L -51.572 42.956 L -51.543 42.724 L -51.468 42.102 L -51.334 40.999 L -51.262 40.4 L -50.542 34.471 L -50.439 33.626 L -50.189 31.568 L -52.47 31.018 L -53.407 30.792 L -56.808 29.971 L -57.41 29.826 L -61.446 28.852 L -62.185 28.673 L -64.341 28.152 Z M -58.615 36.573 L -56.772 39.229 L -53.574 41.626 L -53.395 41.761 L -53.456 41.691 L -54.545 40.428 L -54.694 40.255 L -55.35 39.495 L -56.709 37.919 L -57.318 37.213 L -58.052 36.363 L -59.434 34.761 L -61.679 32.158 Z M -50.1 43.504 L -48.574 43.676 L -42.769 44.328 L -41.908 44.425 L -32.758 45.453 L -35.106 43.568 L -35.974 42.871 L -41.092 38.762 L -41.561 38.386 L -49.626 31.911 L -49.917 34.298 L -50.019 35.143 L -50.673 40.531 L -50.746 41.129 L -50.901 42.41 L -50.977 43.031 L -51.021 43.401 Z M -45.118 46.196 L -37.758 49.573 L -37.673 49.515 L -32.603 46.074 L -41.354 45.091 L -42.215 44.994 L -47.176 44.437 L -48.689 44.267 L -49.532 44.172 Z M -18.961 46.88 L -18.961 46.88 L -22.872 46.662 L -27.223 46.42 L -28.747 46.335 L -31.679 46.171 L -35.57 48.813 L -36.481 49.431 Z M -16.138 46.378 L -13.819 40.636 L -13.49 39.822 L -12.814 38.149 L -20.472 41.4 L -21.498 41.835 L -23.87 42.842 L -24.435 43.082 L -26.374 43.905 L -27.508 44.386 L -30.459 45.639 L -27.312 45.814 L -25.788 45.899 L -18.388 46.311 L -16.161 46.435 Z M -1.308 32.146 L -2.574 32.815 L -3.618 33.366 L -4.443 33.801 L -5.608 34.416 L -6.141 34.697 L -12.028 37.804 L -12.146 38.097 L -12.694 39.452 L -13.022 40.266 L -15.156 45.547 L -6.634 37.3 Z M .038 30.758 L -.191 30.155 L -.57 29.159 L -1.218 27.455 L -1.53 26.631 L -2.585 23.854 L -3.433 21.624 L -3.65 21.052 L -4.607 18.533 L -6.21 22.695 L -6.574 23.642 L -8.337 28.221 L -8.643 29.015 L -11.698 36.952 L -6.383 34.146 L -5.852 33.866 L -4.093 32.938 L -3.268 32.502 L -1.525 31.583 L -.388 30.982 Z M .291 29.735 L 1.041 24.946 L 2.518 15.514 L 3.646 8.305 L 1.721 10.604 L 1.212 11.213 L .211 12.408 L -.205 12.905 L -3.295 16.595 L -4.263 17.751 L -3.955 18.562 L -3.135 20.72 L -2.917 21.293 L -1.199 25.814 L -.886 26.639 L -.322 28.121 L .055 29.114 Z M -28.713 -14.227 L -29.273 -14 L -34.55 -11.866 L -35.767 -11.374 L -43.041 -8.432 L -34.744 -4.463 L -34.16 -4.184 L -25.133 .135 L -24.446 .463 L -21.924 1.669 L -22.117 -7.678 L -22.131 -8.374 L -22.22 -12.675 L -22.233 -13.319 L -22.254 -14.357 L -22.305 -16.818 Z M -43.073 -3.215 L -42.608 2.723 L -42.549 3.481 L -42.367 5.808 L -42.319 6.421 L -41.934 11.339 L -34.009 7.626 L -33.021 7.163 L -24.47 3.156 L -23.913 2.896 L -22.315 2.147 L -24.284 1.206 L -24.97 .878 L -30.333 -1.688 L -34.637 -3.747 L -35.221 -4.026 L -43.444 -7.96 Z M -36.038 28.906 L -29.936 27.966 L -26.249 27.398 L -26.57 27.092 L -30.644 23.213 L -31.092 22.786 L -41.655 12.727 L -42.083 12.319 L -42.278 12.817 L -42.579 13.584 L -47.671 26.579 L -47.896 27.152 L -49.39 30.964 Z M -32.929 7.782 L -41.675 11.88 L -30.787 22.248 L -30.339 22.675 L -25.808 26.989 L -23.145 9.985 L -22.817 7.89 L -21.998 2.661 L -23.781 3.496 L -24.338 3.757 L -31.941 7.319 Z M -17.714 6.12 L -18.642 5.272 L -21.404 2.748 L -22.274 8.305 L -22.387 9.024 L -22.396 9.083 L -22.523 9.891 L -23.396 15.467 L -25.216 27.088 L -13.372 21.498 L -12.815 21.235 L -9.316 19.585 L -8.663 19.276 L -5.139 17.612 L -8.013 14.986 L -8.546 14.499 L -17.236 6.557 Z M -8.68 27.441 L -7.429 24.191 L -7.064 23.244 L -5.154 18.284 L -8.771 19.991 L -9.425 20.3 L -12.434 21.72 L -12.99 21.982 L -23.83 27.098 L -25.021 27.66 L -24.782 27.839 L -16.278 34.21 L -15.797 34.57 L -12.403 37.113 L -8.986 28.236 Z M -31.265 45.329 L -28.733 44.254 L -27.599 43.773 L -24.792 42.582 L -24.226 42.341 L -20.869 40.916 L -19.844 40.481 L -12.863 37.518 L -16.137 35.065 L -16.617 34.706 L -25.448 28.09 L -28.32 36.602 L -28.557 37.303 L -30.63 43.446 L -30.826 44.029 Z M -33.999 43.687 L -33.781 43.862 L -31.91 45.364 L -31.437 43.963 L -31.241 43.38 L -28.987 36.7 L -28.75 35.999 L -26.711 29.956 L -26.058 28.021 L -26.042 27.973 L -29.858 28.561 L -33.639 29.144 L -34.913 29.34 L -49.14 31.532 L -41.205 37.902 L -40.737 38.278 L -34.867 42.99 Z M -54.319 21.279 L -52.107 25.923 L -51.796 26.575 L -49.886 30.585 L -48.505 27.062 L -48.281 26.489 L -42.634 12.08 L -42.616 12.034 L -42.659 12.027 L -47.582 11.27 L -48.304 11.159 L -48.943 11.061 L -59.998 9.359 L -57.601 14.392 L -54.63 20.628 Z M -56.833 5.576 L -59.896 8.769 L -48.613 10.504 L -47.973 10.603 L -42.976 11.372 L -42.528 11.44 L -42.577 10.816 L -42.928 6.332 L -42.976 5.72 L -43.111 3.994 L -43.17 3.236 L -44.031 -7.765 L -47.76 -3.879 L -48.242 -3.377 L -56.275 4.995 Z M -41.609 -18.152 L -41.657 -17.903 L -41.8 -17.158 L -42.679 -12.602 L -42.793 -12.009 L -43.385 -8.94 L -37.075 -11.492 L -35.858 -11.984 L -29.562 -14.53 L -29.001 -14.757 L -23.087 -17.149 L -31.092 -18.603 L -31.85 -18.74 L -36.875 -19.653 L -37.852 -19.83 L -39.753 -20.176 L -41.169 -20.433 L -41.28 -19.856 Z M -19.311 -14.537 L -21.7 -16.594 L -21.638 -13.567 L -21.625 -12.923 L -21.524 -8.032 L -21.51 -7.336 L -21.323 1.733 L -18.535 .783 L -11.394 -1.653 L -10.632 -1.913 L -8.119 -2.77 L -7.549 -2.964 L -6.344 -3.376 L -8.554 -5.278 L -9.599 -6.178 L -14.192 -10.131 L -18.802 -14.099 Z M -6.028 -2.849 L -7.31 -2.412 L -7.879 -2.218 L -9.93 -1.519 L -10.692 -1.259 L -21.038 2.271 L -17.131 5.841 L -16.653 6.277 L -8.438 13.785 L -7.904 14.272 L -4.945 16.977 L -5.654 4.004 L -5.741 2.414 L -5.85 .432 Z M -3.693 -.622 L -5.406 -2.453 L -5.264 .146 L -5.229 .796 L -5.149 2.251 L -5.07 3.685 L -4.717 10.159 L -4.348 16.918 L -.508 12.332 L -.092 11.835 L 1.085 10.43 L 1.594 9.822 L 3.71 7.295 L .653 4.026 L -.082 3.24 L -3.266 -.164 Z M .722 31.017 L -4.848 36.407 L -15.755 46.962 L -37.687 50.213 L -51.481 43.938 L -57.237 39.61 L -65.425 27.813 L -68.542 7.813 L -63.063 -3.277 L -63.047 -3.311 L -62.973 -3.461 L -62.963 -3.481 L -59.548 -10.394 L -47.844 -19.07 L -47.762 -19.097 L -47.58 -19.154 L -41.497 -21.067 L -33.29 -22.138 L -33.26 -22.142 L -33.205 -22.149 L -33.194 -22.15 L -26.567 -23.016 L -13.854 -16.888 L -13.65 -16.789 L -6.236 -13.215 L -.473 -2.113 L -.385 -1.943 L -.349 -1.875 L -.284 -1.751 L 4.406 7.285 Z " fill="#231f20"/>
<path transform="matrix(1,0,0,-1,691.2847,140.34239)" d="M 0 0 C 0 1.476 1.197 2.673 2.673 2.673 C 4.149 2.673 5.346 1.476 5.346 0 C 5.346 -1.476 4.149 -2.672 2.673 -2.672 C 1.197 -2.672 0 -1.476 0 0 " fill="#231f20"/>
<path transform="matrix(1,0,0,-1,712.1494,150.9137)" d="M 0 0 C 0 1.477 1.196 2.673 2.673 2.673 C 4.148 2.673 5.346 1.477 5.346 0 C 5.346 -1.476 4.148 -2.673 2.673 -2.673 C 1.196 -2.673 0 -1.476 0 0 " fill="#231f20"/>
<path transform="matrix(1,0,0,-1,704.895,130.4474)" d="M 0 0 C 0 1.476 1.196 2.673 2.672 2.673 C 4.148 2.673 5.345 1.476 5.345 0 C 5.345 -1.476 4.148 -2.672 2.672 -2.672 C 1.196 -2.672 0 -1.476 0 0 " fill="#231f20"/>
<path transform="matrix(1,0,0,-1,684.9292,122.239398)" d="M 0 0 C 0 1.476 1.197 2.672 2.673 2.672 C 4.149 2.672 5.346 1.476 5.346 0 C 5.346 -1.476 4.149 -2.673 2.673 -2.673 C 1.197 -2.673 0 -1.476 0 0 " fill="#231f20"/>
<path transform="matrix(1,0,0,-1,695.2969,165.7896)" d="M 0 0 C 0 1.476 1.197 2.672 2.673 2.672 C 4.149 2.672 5.345 1.476 5.345 0 C 5.345 -1.477 4.149 -2.673 2.673 -2.673 C 1.197 -2.673 0 -1.477 0 0 " fill="#231f20"/>
<path transform="matrix(1,0,0,-1,710.877,171.4478)" d="M 0 0 C 0 1.477 1.196 2.673 2.673 2.673 C 4.148 2.673 5.345 1.477 5.345 0 C 5.345 -1.477 4.148 -2.673 2.673 -2.673 C 1.196 -2.673 0 -1.477 0 0 " fill="#231f20"/>
<path transform="matrix(1,0,0,-1,694.9331,184.9283)" d="M 0 0 C 0 1.477 1.197 2.673 2.673 2.673 C 4.149 2.673 5.346 1.477 5.346 0 C 5.346 -1.476 4.149 -2.673 2.673 -2.673 C 1.197 -2.673 0 -1.476 0 0 " fill="#231f20"/>
<path transform="matrix(1,0,0,-1,674.6597,156.1803)" d="M 0 0 C 0 1.476 1.197 2.673 2.673 2.673 C 4.149 2.673 5.346 1.476 5.346 0 C 5.346 -1.477 4.149 -2.673 2.673 -2.673 C 1.197 -2.673 0 -1.477 0 0 " fill="#231f20"/>
<path transform="matrix(1,0,0,-1,656.8369,159.0162)" d="M 0 0 C 0 1.477 1.196 2.673 2.672 2.673 C 4.148 2.673 5.345 1.477 5.345 0 C 5.345 -1.476 4.148 -2.673 2.672 -2.673 C 1.196 -2.673 0 -1.476 0 0 " fill="#231f20"/>
<path transform="matrix(1,0,0,-1,667.2192,136.857)" d="M 0 0 C 0 1.476 1.197 2.673 2.673 2.673 C 4.149 2.673 5.346 1.476 5.346 0 C 5.346 -1.476 4.149 -2.673 2.673 -2.673 C 1.197 -2.673 0 -1.476 0 0 " fill="#231f20"/>
<path transform="matrix(1,0,0,-1,666.5483,124.3649)" d="M 0 0 C 0 .913 .74 1.653 1.653 1.653 C 2.566 1.653 3.307 .913 3.307 0 C 3.307 -.913 2.566 -1.653 1.653 -1.653 C .74 -1.653 0 -.913 0 0 " fill="#231f20"/>
<path transform="matrix(1,0,0,-1,680.3428,118.08949)" d="M 0 0 C 0 .913 .74 1.653 1.653 1.653 C 2.566 1.653 3.307 .913 3.307 0 C 3.307 -.913 2.566 -1.653 1.653 -1.653 C .74 -1.653 0 -.913 0 0 " fill="#231f20"/>
<path transform="matrix(1,0,0,-1,701.9741,121.168109)" d="M 0 0 C 0 .913 .74 1.653 1.653 1.653 C 2.566 1.653 3.307 .913 3.307 0 C 3.307 -.913 2.566 -1.653 1.653 -1.653 C .74 -1.653 0 -.913 0 0 " fill="#231f20"/>
<path transform="matrix(1,0,0,-1,720.1504,138.7823)" d="M 0 0 C -.913 0 -1.653 .74 -1.653 1.653 C -1.653 2.566 -.913 3.307 0 3.307 C .913 3.307 1.653 2.566 1.653 1.653 C 1.653 .74 .913 0 0 0 " fill="#231f20"/>
<path transform="matrix(1,0,0,-1,723.8408,162.4029)" d="M 0 0 C -.913 0 -1.653 .74 -1.653 1.653 C -1.653 2.566 -.913 3.307 0 3.307 C .913 3.307 1.653 2.566 1.653 1.653 C 1.653 .74 .913 0 0 0 " fill="#231f20"/>
<path transform="matrix(1,0,0,-1,713.1689,182.61679)" d="M 0 0 C -.913 0 -1.653 .74 -1.653 1.653 C -1.653 2.566 -.913 3.307 0 3.307 C .913 3.307 1.653 2.566 1.653 1.653 C 1.653 .74 .913 0 0 0 " fill="#231f20"/>
<path transform="matrix(1,0,0,-1,693.0469,192.30139)" d="M 0 0 C -.913 0 -1.653 .74 -1.653 1.653 C -1.653 2.566 -.913 3.307 0 3.307 C .913 3.307 1.653 2.566 1.653 1.653 C 1.653 .74 .913 0 0 0 " fill="#231f20"/>
<path transform="matrix(1,0,0,-1,678.2822,190.648)" d="M 0 0 C -.913 0 -1.653 .74 -1.653 1.653 C -1.653 2.566 -.913 3.307 0 3.307 C .913 3.307 1.653 2.566 1.653 1.653 C 1.653 .74 .913 0 0 0 " fill="#231f20"/>
<path transform="matrix(1,0,0,-1,660.5361,179.72809)" d="M 0 0 C -.913 0 -1.653 .74 -1.653 1.653 C -1.653 2.566 -.913 3.307 0 3.307 C .913 3.307 1.653 2.566 1.653 1.653 C 1.653 .74 .913 0 0 0 " fill="#231f20"/>
<path transform="matrix(1,0,0,-1,651.3818,162.068)" d="M 0 0 C -.913 0 -1.653 .74 -1.653 1.653 C -1.653 2.566 -.913 3.307 0 3.307 C .913 3.307 1.653 2.566 1.653 1.653 C 1.653 .74 .913 0 0 0 " fill="#231f20"/>
<path transform="matrix(1,0,0,-1,654.5518,141.9957)" d="M 0 0 C -.913 0 -1.653 .74 -1.653 1.653 C -1.653 2.566 -.913 3.307 0 3.307 C .913 3.307 1.653 2.566 1.653 1.653 C 1.653 .74 .913 0 0 0 " fill="#231f20"/>
<path transform="matrix(1,0,0,-1,673.1978,176.3951)" d="M 0 0 C 0 1.477 1.196 2.673 2.672 2.673 C 4.148 2.673 5.345 1.477 5.345 0 C 5.345 -1.477 4.148 -2.673 2.672 -2.673 C 1.196 -2.673 0 -1.477 0 0 " fill="#231f20"/>
<path transform="matrix(1,0,0,-1,374.6792,92.034809)" d="M 0 0 L -27.392 -17.435 L -27.392 -58.73 L -33.248 -62.463 L -33.248 -21.187 L -42.447 -27.043 L -60.454 -38.506 L -60.454 -114.686 L 0 -76.187 Z " fill="#00bfff"/>
<path transform="matrix(1,0,0,-1,341.4312,154.4977)" d="M 0 0 L 5.857 3.731 L 5.857 45.028 L 33.248 62.462 L -27.207 100.959 L -27.207 73.185 L -9.199 61.717 L -9.199 35.419 L 0 41.276 Z " fill="#231f20"/>
<path transform="matrix(1,0,0,-1,374.6792,92.034809)" d="M 0 0 L 0 -76.187 L 60.473 -114.686 L 60.473 -79.993 L 27.609 -59.035 L 27.609 -52.181 L 60.473 -73.149 L 60.473 -38.506 L 38.035 -24.215 Z " fill="#231f20"/>
<path transform="matrix(1,0,0,-1,60.2578,213.6676)" d="M 0 0 L 0 6.938 L 1.512 6.938 L 1.512 .047 C 1.512 -2.729 .186 -4.068 -2.512 -4.068 C -5.083 -4.068 -6.719 -2.729 -6.719 .047 L -6.719 6.938 L -5.02 6.938 L -5.02 0 C -5.02 -2.167 -3.944 -2.729 -2.417 -2.729 C -.952 -2.729 0 -2.136 0 0 " fill="#231f20"/>
<path transform="matrix(1,0,0,-1,65.5181,206.7291)" d="M 0 0 L 1.949 0 L 6.704 -8.03 L 6.735 -8.03 L 6.735 0 L 8.201 0 L 8.201 -10.914 L 6.64 -10.914 L 1.48 -2.168 L 1.449 -2.168 L 1.449 -10.914 L 0 -10.914 Z " fill="#231f20"/>
<path transform="matrix(1,0,0,-1,0,287.961)" d="M 77.543 81.232 L 79.256999 81.232 L 79.256999 70.319 L 77.543 70.319 Z " fill="#231f20"/>
<path transform="matrix(1,0,0,-1,82.3633,207.24469)" d="M 0 0 L 0 .515 L 1.591 .515 L 4.521 -8.31 L 4.553 -8.31 L 7.5 .515 L 8.934 .515 L 8.934 0 L 5.333 -10.398 L 3.571 -10.398 Z " fill="#231f20"/>
<path transform="matrix(1,0,0,-1,94.3745,206.7291)" d="M 0 0 L 6.688 0 L 6.688 -1.311 L 1.683 -1.311 L 1.683 -4.709 L 5.346 -4.709 L 5.346 -5.956 L 1.683 -5.956 L 1.683 -9.635 L 6.858 -9.635 L 6.858 -10.914 L 0 -10.914 Z " fill="#231f20"/>
<path transform="matrix(1,0,0,-1,108.2075,213.0748)" d="M 0 0 C -.155 -.017 -.327 -.017 -.514 -.017 L -2.058 -.017 L -2.058 -4.569 L -3.741 -4.569 L -3.741 6.346 L -.514 6.346 C 1.903 6.346 3.383 5.379 3.383 3.243 C 3.383 1.746 2.729 .796 1.591 .327 L 3.945 -4.053 L 3.945 -4.569 L 2.402 -4.569 Z M -2.058 1.23 L -.562 1.23 C .92 1.23 1.669 1.76 1.669 3.149 C 1.669 4.505 .873 5.052 -.562 5.052 L -2.058 5.052 Z " fill="#231f20"/>
<path transform="matrix(1,0,0,-1,114.7446,216.81601)" d="M 0 0 L 0 1.372 L .593 1.372 C 1.092 .84 1.917 .373 3.274 .373 C 4.693 .373 5.52 .949 5.52 2.136 C 5.52 3.492 4.413 3.679 3.041 4.069 C 1.122 4.631 .156 5.409 .156 7.172 C .156 9.072 1.512 10.18 3.633 10.18 C 4.942 10.18 5.877 9.869 6.532 9.448 L 6.532 8.122 L 5.956 8.122 C 5.394 8.574 4.724 8.887 3.696 8.887 C 2.308 8.887 1.638 8.311 1.638 7.295 C 1.638 6.156 2.465 5.861 3.788 5.519 C 6.019 4.91 7.078 4.271 7.078 2.307 C 7.078 .187 5.691 -.92 3.321 -.92 C 1.777 -.92 .812 -.546 0 0 " fill="#231f20"/>
<path transform="matrix(1,0,0,-1,0,287.961)" d="M 125.039 81.232 L 126.753 81.232 L 126.753 70.319 L 125.039 70.319 Z " fill="#231f20"/>
<path transform="matrix(1,0,0,-1,130.5923,206.7291)" d="M 0 0 L 3.117 0 C 6.657 0 8.574 -1.622 8.574 -5.426 C 8.574 -9.198 6.64 -10.914 3.07 -10.914 L 0 -10.914 Z M 3.07 -9.635 C 5.643 -9.635 6.828 -8.467 6.828 -5.442 C 6.828 -2.449 5.643 -1.295 3.07 -1.295 L 1.683 -1.295 L 1.683 -9.635 Z " fill="#231f20"/>
<path transform="matrix(1,0,0,-1,141.231,217.1275)" d="M 0 0 L 3.602 10.398 L 5.409 10.398 L 8.995 0 L 8.995 -.516 L 7.39 -.516 L 6.376 2.541 L 2.369 2.541 L 1.387 -.516 L 0 -.516 Z M 2.775 3.787 L 5.955 3.787 L 4.381 8.604 L 4.35 8.604 Z " fill="#231f20"/>
<path transform="matrix(1,0,0,-1,153.3198,206.7291)" d="M 0 0 L 3.117 0 C 6.656 0 8.574 -1.622 8.574 -5.426 C 8.574 -9.198 6.64 -10.914 3.07 -10.914 L 0 -10.914 Z M 3.07 -9.635 C 5.643 -9.635 6.828 -8.467 6.828 -5.442 C 6.828 -2.449 5.643 -1.295 3.07 -1.295 L 1.683 -1.295 L 1.683 -9.635 Z " fill="#231f20"/>
<path transform="matrix(1,0,0,-1,169.916,206.7291)" d="M 0 0 L 3.117 0 C 6.657 0 8.574 -1.622 8.574 -5.426 C 8.574 -9.198 6.64 -10.914 3.07 -10.914 L 0 -10.914 Z M 3.07 -9.635 C 5.643 -9.635 6.828 -8.467 6.828 -5.442 C 6.828 -2.449 5.643 -1.295 3.07 -1.295 L 1.684 -1.295 L 1.684 -9.635 Z " fill="#231f20"/>
<path transform="matrix(1,0,0,-1,181.7393,206.7291)" d="M 0 0 L 6.688 0 L 6.688 -1.311 L 1.684 -1.311 L 1.684 -4.709 L 5.346 -4.709 L 5.346 -5.956 L 1.684 -5.956 L 1.684 -9.635 L 6.858 -9.635 L 6.858 -10.914 L 0 -10.914 Z " fill="#231f20"/>
<path transform="matrix(1,0,0,-1,0,287.961)" d="M 196.62 81.232 L 198.334 81.232 L 198.334 70.319 L 196.62 70.319 Z " fill="#231f20"/>
<path transform="matrix(1,0,0,-1,202.1733,206.7291)" d="M 0 0 L 1.948 0 L 6.704 -8.03 L 6.734 -8.03 L 6.734 0 L 8.201 0 L 8.201 -10.914 L 6.64 -10.914 L 1.48 -2.168 L 1.449 -2.168 L 1.449 -10.914 L 0 -10.914 Z " fill="#231f20"/>
<path transform="matrix(1,0,0,-1,213.5903,212.1861)" d="M 0 0 C 0 3.616 2.075 5.551 5.145 5.551 C 6.547 5.551 7.358 5.27 8.215 4.817 L 8.215 3.413 L 7.608 3.413 C 7.063 3.898 6.393 4.241 5.176 4.241 C 3.134 4.241 1.794 3.008 1.794 .062 C 1.794 -2.885 2.9 -4.318 4.958 -4.318 C 5.925 -4.318 6.485 -4.146 6.937 -3.929 L 6.937 -1.107 L 5.115 -1.107 L 5.115 .078 L 8.622 .078 L 8.622 -4.708 C 7.702 -5.207 6.502 -5.551 4.958 -5.551 C 1.886 -5.551 0 -3.632 0 0 " fill="#231f20"/>
<path transform="matrix(1,0,0,-1,225.8818,206.7291)" d="M 0 0 L 6.688 0 L 6.688 -1.311 L 1.684 -1.311 L 1.684 -4.709 L 5.347 -4.709 L 5.347 -5.956 L 1.684 -5.956 L 1.684 -9.635 L 6.858 -9.635 L 6.858 -10.914 L 0 -10.914 Z " fill="#231f20"/>
<path transform="matrix(1,0,0,-1,235.9575,206.7291)" d="M 0 0 L 1.948 0 L 6.703 -8.03 L 6.734 -8.03 L 6.734 0 L 8.201 0 L 8.201 -10.914 L 6.64 -10.914 L 1.48 -2.168 L 1.449 -2.168 L 1.449 -10.914 L 0 -10.914 Z " fill="#231f20"/>
<path transform="matrix(1,0,0,-1,0,287.961)" d="M 247.983 81.232 L 249.698 81.232 L 249.698 70.319 L 247.983 70.319 Z " fill="#231f20"/>
<path transform="matrix(1,0,0,-1,253.5361,206.7291)" d="M 0 0 L 6.688 0 L 6.688 -1.311 L 1.683 -1.311 L 1.683 -4.709 L 5.346 -4.709 L 5.346 -5.956 L 1.683 -5.956 L 1.683 -9.635 L 6.858 -9.635 L 6.858 -10.914 L 0 -10.914 Z " fill="#231f20"/>
<path transform="matrix(1,0,0,-1,267.3691,213.0748)" d="M 0 0 C -.155 -.017 -.327 -.017 -.515 -.017 L -2.058 -.017 L -2.058 -4.569 L -3.741 -4.569 L -3.741 6.346 L -.515 6.346 C 1.903 6.346 3.383 5.379 3.383 3.243 C 3.383 1.746 2.729 .796 1.591 .327 L 3.945 -4.053 L 3.945 -4.569 L 2.402 -4.569 Z M -2.058 1.23 L -.562 1.23 C .92 1.23 1.669 1.76 1.669 3.149 C 1.669 4.505 .873 5.052 -.562 5.052 L -2.058 5.052 Z " fill="#231f20"/>
<path transform="matrix(1,0,0,-1,0,287.961)" d="M 274.608 81.232 L 276.323 81.232 L 276.323 70.319 L 274.608 70.319 Z M 274.952 81.962 L 275.623 83.446 L 277.228 83.446 L 277.228 82.946 L 275.872 81.575 L 274.952 81.575 Z " fill="#231f20"/>
<path transform="matrix(1,0,0,-1,279.4448,217.1275)" d="M 0 0 L 3.602 10.398 L 5.409 10.398 L 8.995 0 L 8.995 -.516 L 7.39 -.516 L 6.376 2.541 L 2.369 2.541 L 1.387 -.516 L 0 -.516 Z M 2.775 3.787 L 5.955 3.787 L 4.381 8.604 L 4.35 8.604 Z " fill="#231f20"/>
<path transform="matrix(1,0,0,-1,173.0361,235.1109)" d="M 0 0 L 0 4.366 L -3.335 10.369 L -3.335 10.914 L -1.793 10.914 L .889 5.972 L .904 5.972 L 3.523 10.914 L 4.88 10.914 L 4.88 10.369 L 1.684 4.413 L 1.684 0 Z " fill="#231f20"/>
<path transform="matrix(1,0,0,-1,188.1045,235.1109)" d="M 0 0 L 0 9.635 L -3.134 9.635 L -3.134 10.914 L 4.833 10.914 L 4.833 9.635 L 1.699 9.635 L 1.699 0 Z " fill="#231f20"/>
<path transform="matrix(1,0,0,-1,196.0142,224.19589)" d="M 0 0 L 6.687 0 L 6.687 -1.311 L 1.683 -1.311 L 1.683 -4.71 L 5.346 -4.71 L 5.346 -5.956 L 1.683 -5.956 L 1.683 -9.635 L 6.858 -9.635 L 6.858 -10.914 L 0 -10.914 Z " fill="#231f20"/>
<path transform="matrix(1,0,0,-1,205.3262,229.6529)" d="M 0 0 C 0 3.522 2.151 5.55 4.989 5.55 C 6.547 5.55 7.328 5.207 8.139 4.678 L 8.139 3.352 L 7.483 3.352 C 6.969 3.85 6.252 4.255 5.036 4.255 C 3.056 4.255 1.73 2.806 1.73 .062 C 1.73 -2.822 2.899 -4.271 4.911 -4.271 C 6.299 -4.271 7.093 -3.726 7.717 -3.086 L 8.263 -3.086 L 8.263 -4.381 C 7.515 -5.036 6.423 -5.551 4.849 -5.551 C 1.949 -5.551 0 -3.54 0 0 " fill="#231f20"/>
<path transform="matrix(1,0,0,-1,216.8223,224.19589)" d="M 0 0 L 1.949 0 L 6.704 -8.031 L 6.735 -8.031 L 6.735 0 L 8.201 0 L 8.201 -10.914 L 6.64 -10.914 L 1.48 -2.168 L 1.449 -2.168 L 1.449 -10.914 L 0 -10.914 Z " fill="#231f20"/>
<path transform="matrix(1,0,0,-1,228.2393,229.6529)" d="M 0 0 C 0 3.586 2.276 5.55 4.942 5.55 C 7.593 5.55 9.869 3.586 9.869 0 C 9.869 -3.603 7.593 -5.551 4.942 -5.551 C 2.276 -5.551 0 -3.603 0 0 M 8.139 -.031 C 8.139 2.867 6.766 4.286 4.942 4.286 C 3.103 4.286 1.747 2.867 1.747 -.031 C 1.747 -2.932 3.103 -4.287 4.942 -4.287 C 6.766 -4.287 8.139 -2.932 8.139 -.031 " fill="#231f20"/>
<path transform="matrix(1,0,0,-1,241.3574,235.1109)" d="M 0 0 L 0 10.914 L 1.684 10.914 L 1.684 1.279 L 6.547 1.279 L 6.547 0 Z " fill="#231f20"/>
<path transform="matrix(1,0,0,-1,249.748,229.6529)" d="M 0 0 C 0 3.586 2.276 5.55 4.942 5.55 C 7.593 5.55 9.869 3.586 9.869 0 C 9.869 -3.603 7.593 -5.551 4.942 -5.551 C 2.276 -5.551 0 -3.603 0 0 M 8.139 -.031 C 8.139 2.867 6.766 4.286 4.942 4.286 C 3.103 4.286 1.747 2.867 1.747 -.031 C 1.747 -2.932 3.103 -4.287 4.942 -4.287 C 6.766 -4.287 8.139 -2.932 8.139 -.031 " fill="#231f20"/>
<path transform="matrix(1,0,0,-1,262.29,229.6529)" d="M 0 0 C 0 3.616 2.075 5.55 5.145 5.55 C 6.547 5.55 7.358 5.27 8.215 4.817 L 8.215 3.413 L 7.608 3.413 C 7.063 3.897 6.393 4.241 5.176 4.241 C 3.134 4.241 1.794 3.008 1.794 .062 C 1.794 -2.885 2.9 -4.318 4.959 -4.318 C 5.925 -4.318 6.485 -4.147 6.937 -3.929 L 6.937 -1.108 L 5.115 -1.108 L 5.115 .077 L 8.622 .077 L 8.622 -4.709 C 7.702 -5.208 6.502 -5.551 4.959 -5.551 C 1.886 -5.551 0 -3.632 0 0 " fill="#231f20"/>
<path transform="matrix(1,0,0,-1,0,287.961)" d="M 274.612 63.764 L 276.326 63.764 L 276.326 52.850999 L 274.612 52.850999 Z M 274.956 64.497 L 275.625 65.978 L 277.231 65.978 L 277.231 65.479 L 275.876 64.108 L 274.956 64.108 Z " fill="#231f20"/>
<path transform="matrix(1,0,0,-1,279.4487,234.5953)" d="M 0 0 L 3.602 10.399 L 5.409 10.399 L 8.995 0 L 8.995 -.515 L 7.39 -.515 L 6.376 2.541 L 2.368 2.541 L 1.387 -.515 L 0 -.515 Z M 2.775 3.788 L 5.955 3.788 L 4.38 8.605 L 4.349 8.605 Z " fill="#231f20"/>
<path transform="matrix(1,0,0,-1,435.1523,74.4913)" d="M 0 0 L 0 20.953 L -60.473 -17.543 L -22.438 -41.759 L 0 -27.485 L 0 -6.822 L -29.303 -25.501 L -29.303 -18.673 Z " fill="#00bfff"/>
<path transform="matrix(1,0,0,-1,420.583,121.26129)" d="M 0 0 L 14.569 -9.279 L 14.569 9.291 Z " fill="#00bfff"/>
<path transform="matrix(1,0,0,-1,88.8887,140.0109)" d="M 0 0 L 7.407 0 L 7.407 -29.536 C 7.407 -39.099 2.624 -43.694 -5.345 -43.694 C -13.223 -43.694 -18.004 -38.629 -18.004 -29.16 L -18.004 0 L -10.597 0 L -10.597 9.47 L -35.35 9.47 L -35.35 0 L -28.599 0 L -28.599 -29.723 C -28.599 -45.663 -19.129 -53.352 -5.345 -53.352 C 8.249 -53.352 17.72 -45.663 17.72 -29.536 L 17.72 0 L 24.47 0 L 24.47 9.47 L 0 9.47 Z " fill="#231f20"/>
<path transform="matrix(1,0,0,-1,119.4707,148.1676)" d="M 0 0 L 10.032 0 L 10.032 8.438 L 21.472 8.438 L 21.472 -35.726 L 13.782 -35.726 L 13.782 -45.195 L 39.756 -45.195 L 39.756 -35.726 L 32.066 -35.726 L 32.066 8.438 L 43.506 8.438 L 43.506 0 L 53.539 0 L 53.539 17.627 L 0 17.627 Z " fill="#231f20"/>
<path transform="matrix(1,0,0,-1,215.127,183.9859)" d="M 0 0 L -18.378 0 L -18.378 18.565 L .28 18.565 L .28 27.566 L -18.378 27.566 L -18.378 44.069 L -.095 44.069 L -.095 35.818 L 10.031 35.818 L 10.031 53.445 L -36.006 53.444 L -36.006 43.974 L -28.975 43.974 L -28.975 .093 L -36.006 .093 L -36.006 -9.377 L 10.031 -9.377 L 10.031 8.252 L 0 8.252 Z " fill="#231f20"/>
<path transform="matrix(1,0,0,-1,288.4438,140.30139)" d="M 0 0 C -2.875 3.188 -6.419 5.764 -10.41 7.586 C -12.94 8.815 -15.911 9.742 -19.255 10.236 C -19.255 10.237 -19.256 10.237 -19.258 10.237 C -19.626 10.296 -19.998 10.335 -20.369 10.382 C -20.867 10.438 -21.372 10.493 -21.885 10.532 C -22.06 10.545 -22.23 10.561 -22.404 10.572 C -23.151 10.621 -23.903 10.652 -24.666 10.652 C -24.691 10.652 -24.719 10.649 -24.746 10.649 C -24.78 10.649 -24.813 10.652 -24.85 10.652 C -25.895 10.652 -26.921 10.603 -27.936 10.515 C -28.153 10.494 -28.372 10.471 -28.586 10.449 C -29.138 10.395 -29.675 10.312 -30.212 10.236 C -45.284 8.119 -55.872 -2.639 -57.046 -18.281 C -57.115 -19.241 -57.174 -20.209 -57.174 -21.205 C -57.174 -22.2 -57.115 -23.167 -57.046 -24.127 C -55.872 -39.769 -45.284 -50.528 -30.212 -52.645 C -29.675 -52.721 -29.138 -52.806 -28.586 -52.858 C -28.372 -52.881 -28.153 -52.905 -27.936 -52.923 C -26.921 -53.012 -25.895 -53.062 -24.85 -53.062 C -24.813 -53.062 -24.78 -53.058 -24.746 -53.058 C -24.719 -53.058 -24.691 -53.062 -24.666 -53.062 C -23.903 -53.062 -23.151 -53.028 -22.404 -52.98 C -22.23 -52.97 -22.06 -52.955 -21.885 -52.941 C -21.372 -52.901 -20.867 -52.848 -20.369 -52.792 C -19.998 -52.745 -19.626 -52.706 -19.258 -52.646 C -19.256 -52.646 -19.255 -52.646 -19.255 -52.645 C -15.911 -52.151 -12.94 -51.223 -10.41 -49.996 C -6.428 -48.177 -2.89 -45.608 -.02 -42.429 L 0 -42.429 L 0 -30.385 L -10.12 -30.385 L -10.12 -37.981 C -11.862 -39.373 -13.737 -40.557 -15.778 -41.428 C -17.627 -42.219 -19.593 -42.779 -21.691 -43.05 C -21.991 -43.087 -22.295 -43.111 -22.599 -43.137 C -23.065 -43.178 -23.553 -43.2 -24.056 -43.22 C -24.32 -43.228 -24.577 -43.239 -24.85 -43.244 C -37.698 -43.147 -46.197 -33.433 -46.24 -21.205 C -46.197 -8.977 -37.698 .741 -24.85 .836 C -24.577 .832 -24.32 .817 -24.056 .809 C -23.553 .792 -23.065 .769 -22.599 .728 C -22.295 .704 -21.991 .678 -21.691 .64 C -19.593 .372 -17.627 -.19 -15.776 -.981 C -13.737 -1.853 -11.86 -3.035 -10.12 -4.428 L -10.12 -12.048 L 0 -12.048 L 0 -.003 L -.003 -.003 Z " fill="#231f20"/>
</g>
</g>
</g>
</svg>
